<svg width="154" height="153" viewBox="0 0 154 153" fill="none" xmlns="http://www.w3.org/2000/svg">
<mask id="path-1-inside-1_7_15" fill="white">
<path d="M77.0663 30.7454L107.472 0.339858L153.434 46.3018L123.028 76.7074L152.727 106.406L106.765 152.368L77.0663 122.669L47.3678 152.368L1.40586 106.406L31.1044 76.7074L0.698758 46.3018L46.6607 0.339858L77.0663 30.7454Z"/>
</mask>
<path d="M77.0663 30.7454L107.472 0.339858L153.434 46.3018L123.028 76.7074L152.727 106.406L106.765 152.368L77.0663 122.669L47.3678 152.368L1.40586 106.406L31.1044 76.7074L0.698758 46.3018L46.6607 0.339858L77.0663 30.7454Z" fill="#0EA5E9"/>
<path d="M77.0663 30.7454L74.2379 33.5739L77.0663 36.4023L79.8947 33.5739L77.0663 30.7454ZM107.472 0.339858L110.3 -2.48857L107.472 -5.317L104.643 -2.48857L107.472 0.339858ZM153.434 46.3018L156.262 49.1302L159.091 46.3018L156.262 43.4734L153.434 46.3018ZM123.028 76.7074L120.2 73.879L117.371 76.7074L120.2 79.5358L123.028 76.7074ZM152.727 106.406L155.555 109.234L158.384 106.406L155.555 103.577L152.727 106.406ZM106.765 152.368L103.936 155.196L106.765 158.025L109.593 155.196L106.765 152.368ZM77.0663 122.669L79.8947 119.841L77.0663 117.012L74.2379 119.841L77.0663 122.669ZM47.3678 152.368L44.5394 155.196L47.3678 158.025L50.1962 155.196L47.3678 152.368ZM1.40586 106.406L-1.42256 103.577L-4.25099 106.406L-1.42256 109.234L1.40586 106.406ZM31.1044 76.7074L33.9328 79.5358L36.7612 76.7074L33.9328 73.879L31.1044 76.7074ZM0.698758 46.3018L-2.12967 43.4734L-4.9581 46.3018L-2.12967 49.1302L0.698758 46.3018ZM46.6607 0.339858L49.4891 -2.48857L46.6607 -5.317L43.8323 -2.48857L46.6607 0.339858ZM77.0663 30.7454L79.8947 33.5739L110.3 3.16829L107.472 0.339858L104.643 -2.48857L74.2379 27.917L77.0663 30.7454ZM107.472 0.339858L104.643 3.16829L150.605 49.1302L153.434 46.3018L156.262 43.4734L110.3 -2.48857L107.472 0.339858ZM153.434 46.3018L150.605 43.4734L120.2 73.879L123.028 76.7074L125.857 79.5358L156.262 49.1302L153.434 46.3018ZM123.028 76.7074L120.2 79.5358L149.898 109.234L152.727 106.406L155.555 103.577L125.857 73.879L123.028 76.7074ZM152.727 106.406L149.898 103.577L103.936 149.539L106.765 152.368L109.593 155.196L155.555 109.234L152.727 106.406ZM106.765 152.368L109.593 149.539L79.8947 119.841L77.0663 122.669L74.2379 125.498L103.936 155.196L106.765 152.368ZM77.0663 122.669L74.2379 119.841L44.5394 149.539L47.3678 152.368L50.1962 155.196L79.8947 125.498L77.0663 122.669ZM47.3678 152.368L50.1962 149.539L4.23429 103.577L1.40586 106.406L-1.42256 109.234L44.5394 155.196L47.3678 152.368ZM1.40586 106.406L4.23429 109.234L33.9328 79.5358L31.1044 76.7074L28.2759 73.879L-1.42256 103.577L1.40586 106.406ZM31.1044 76.7074L33.9328 73.879L3.52718 43.4734L0.698758 46.3018L-2.12967 49.1302L28.2759 79.5358L31.1044 76.7074ZM0.698758 46.3018L3.52718 49.1302L49.4891 3.16829L46.6607 0.339858L43.8323 -2.48857L-2.12967 43.4734L0.698758 46.3018ZM46.6607 0.339858L43.8323 3.16829L74.2379 33.5739L77.0663 30.7454L79.8947 27.917L49.4891 -2.48857L46.6607 0.339858Z" fill="#1D4ED8" mask="url(#path-1-inside-1_7_15)"/>
</svg>
