<svg width="150" height="150" viewBox="0 0 150 150" fill="none" xmlns="http://www.w3.org/2000/svg">
<mask id="path-1-inside-1_7_7" fill="white">
<path d="M107 43H150V108H107V150H42V108H0V43H42V0H107V43Z"/>
</mask>
<path d="M107 43H150V108H107V150H42V108H0V43H42V0H107V43Z" fill="#0EA5E9"/>
<path d="M107 43H103V47H107V43ZM150 43H154V39H150V43ZM150 108V112H154V108H150ZM107 108V104H103V108H107ZM107 150V154H111V150H107ZM42 150H38V154H42V150ZM42 108H46V104H42V108ZM0 108H-4V112H0V108ZM0 43V39H-4V43H0ZM42 43V47H46V43H42ZM42 0V-4H38V0H42ZM107 0H111V-4H107V0ZM107 43V47H150V43V39H107V43ZM150 43H146V108H150H154V43H150ZM150 108V104H107V108V112H150V108ZM107 108H103V150H107H111V108H107ZM107 150V146H42V150V154H107V150ZM42 150H46V108H42H38V150H42ZM42 108V104H0V108V112H42V108ZM0 108H4V43H0H-4V108H0ZM0 43V47H42V43V39H0V43ZM42 43H46V0H42H38V43H42ZM42 0V4H107V0V-4H42V0ZM107 0H103V43H107H111V0H107Z" fill="#1D4ED8" mask="url(#path-1-inside-1_7_7)"/>
</svg>
